# xmcd CD database file
#
# Track frame offsets:
#	150
#	20060
#	39631
#	50880
#	68124
#
# Disc length: 1125 seconds
#
# Revision: 0
# Processed by: cddbd v1.5.1PL0 Copyright (c) Steve Scherf et al.
# Submitted via: CDex 1.51
#
DISCID=46046305
DTITLE=BPM&GROOVE (Follow the wind) - 1st ATTACKER
DYEAR=1900
DGENRE=未分類 (日本)
TTITLE0=熱風！疾風！サイバスター"take SC-8850"
TTITLE1=バトルテーマ１"黒魔道士風？アレンジVer"
TTITLE2=Computer Controlled (Guest arranger　萌尽狼/ EDIA LABEL")
TTITLE3=風はいつも一番
TTITLE4=ACE ATTACKER
EXTD=
EXTT0=
EXTT1=
EXTT2=
EXTT3=
EXTT4=
PLAYORDER=
